<?xml version="1.0" encoding="UTF-8" standalone="no"?>
<!-- Created with Inkscape (http://www.inkscape.org/) -->

<svg
   xmlns:dc="http://purl.org/dc/elements/1.1/"
   xmlns:cc="http://creativecommons.org/ns#"
   xmlns:rdf="http://www.w3.org/1999/02/22-rdf-syntax-ns#"
   xmlns:svg="http://www.w3.org/2000/svg"
   xmlns="http://www.w3.org/2000/svg"
   xmlns:sodipodi="http://sodipodi.sourceforge.net/DTD/sodipodi-0.dtd"
   xmlns:inkscape="http://www.inkscape.org/namespaces/inkscape"
   width="128"
   height="128"
   viewBox="0 0 128 128"
   version="1.1"
   id="svg8"
   inkscape:version="0.92.1 r15371"
   sodipodi:docname="logo.svg"
   inkscape:export-filename="/home/onitake/Code/restreamer/doc/logo.png"
   inkscape:export-xdpi="192"
   inkscape:export-ydpi="192">
  <defs
     id="defs2">
    <filter
       style="color-interpolation-filters:sRGB;"
       inkscape:label="Drop Shadow"
       id="filter5308">
      <feFlood
         flood-opacity="0.498039"
         flood-color="rgb(0,0,0)"
         result="flood"
         id="feFlood5298" />
      <feComposite
         in="flood"
         in2="SourceGraphic"
         operator="in"
         result="composite1"
         id="feComposite5300" />
      <feGaussianBlur
         in="composite1"
         stdDeviation="1"
         result="blur"
         id="feGaussianBlur5302" />
      <feOffset
         dx="2"
         dy="2"
         result="offset"
         id="feOffset5304" />
      <feComposite
         in="SourceGraphic"
         in2="offset"
         operator="over"
         result="composite2"
         id="feComposite5306" />
    </filter>
  </defs>
  <sodipodi:namedview
     id="base"
     pagecolor="#ffffff"
     bordercolor="#666666"
     borderopacity="1.0"
     inkscape:pageopacity="0.0"
     inkscape:pageshadow="2"
     inkscape:zoom="0.49497475"
     inkscape:cx="70.413828"
     inkscape:cy="60.035522"
     inkscape:document-units="px"
     inkscape:current-layer="layer1"
     showgrid="true"
     units="px"
     inkscape:pagecheckerboard="false"
     showguides="false"
     inkscape:window-width="1366"
     inkscape:window-height="703"
     inkscape:window-x="0"
     inkscape:window-y="0"
     inkscape:window-maximized="1">
    <inkscape:grid
       type="xygrid"
       id="grid4485"
       empspacing="8"
       snapvisiblegridlinesonly="false" />
  </sodipodi:namedview>
  <metadata
     id="metadata5">
    <rdf:RDF>
      <cc:Work
         rdf:about="">
        <dc:format>image/svg+xml</dc:format>
        <dc:type
           rdf:resource="http://purl.org/dc/dcmitype/StillImage" />
        <dc:title></dc:title>
      </cc:Work>
    </rdf:RDF>
  </metadata>
  <g
     inkscape:label="Layer 1"
     inkscape:groupmode="layer"
     id="layer1"
     transform="translate(0,-263.13332)">
    <g
       id="g5296"
       style="filter:url(#filter5308)">
      <path
         d="m 88,299.13332 h 32 l -32,-16 z m -55.712891,-12.3423 c -1.771365,0.0908 -3.473202,0.33613 -5.103515,0.67578 C 20.66234,288.82539 15.166667,291.13281 8,291.13281 v 8 c 8.833333,0 15.33766,-2.69258 20.816406,-3.83398 5.478746,-1.14141 9.826699,-1.29704 17.064453,3.22656 8.762246,5.4764 16.414293,5.63203 22.935547,4.27344 C 75.33766,301.44023 80.833333,299.13281 88,299.13281 v -8 c -8.833333,0 -15.33766,2.69258 -20.816406,3.83399 -5.478746,1.1414 -9.826699,1.29898 -17.064453,-3.22461 -6.571685,-4.10731 -12.517934,-5.22372 -17.832032,-4.95117 z"
         style="fill:#ff0000;fill-rule:evenodd;stroke:none;stroke-width:1px;stroke-linecap:butt;stroke-linejoin:miter;stroke-opacity:1;fill-opacity:1"
         id="path4707" />
      <path
         inkscape:connector-curvature="0"
         id="path4701-3"
         d="m 32.287109,318.79102 c -1.771365,0.0908 -3.473202,0.33613 -5.103515,0.67578 C 20.66234,320.82539 15.166667,323.13281 8,323.13281 v 8 c 8.833333,0 15.33766,-2.69258 20.816406,-3.83398 5.478746,-1.14141 9.826699,-1.29704 17.064453,3.22656 8.762246,5.4764 16.414293,5.63203 22.935547,4.27344 C 75.33766,333.44023 80.833333,331.13281 88,331.13281 v -8 c -8.833333,0 -15.33766,2.69258 -20.816406,3.83399 -5.478746,1.1414 -9.826699,1.29898 -17.064453,-3.22461 -6.571685,-4.10731 -12.517934,-5.22372 -17.832032,-4.95117 z"
         style="color:#000000;font-style:normal;font-variant:normal;font-weight:normal;font-stretch:normal;font-size:medium;line-height:normal;font-family:sans-serif;font-variant-ligatures:normal;font-variant-position:normal;font-variant-caps:normal;font-variant-numeric:normal;font-variant-alternates:normal;font-feature-settings:normal;text-indent:0;text-align:start;text-decoration:none;text-decoration-line:none;text-decoration-style:solid;text-decoration-color:#000000;letter-spacing:normal;word-spacing:normal;text-transform:none;writing-mode:lr-tb;direction:ltr;text-orientation:mixed;dominant-baseline:auto;baseline-shift:baseline;text-anchor:start;white-space:normal;shape-padding:0;clip-rule:nonzero;display:inline;overflow:visible;visibility:visible;opacity:1;isolation:auto;mix-blend-mode:normal;color-interpolation:sRGB;color-interpolation-filters:linearRGB;solid-color:#000000;solid-opacity:1;vector-effect:none;fill:#00ff00;fill-opacity:1;fill-rule:evenodd;stroke:none;stroke-width:8;stroke-linecap:butt;stroke-linejoin:miter;stroke-miterlimit:4;stroke-dasharray:none;stroke-dashoffset:0;stroke-opacity:1;color-rendering:auto;image-rendering:auto;shape-rendering:auto;text-rendering:auto;enable-background:accumulate" />
      <path
         d="m 88,356.13332 h 32 l -32,16 z m -55.712891,-4.3423 c -1.771365,0.0908 -3.473202,0.33613 -5.103515,0.67578 C 20.66234,353.82539 15.166667,356.13281 8,356.13281 v 8 c 8.833333,0 15.33766,-2.69258 20.816406,-3.83398 5.478746,-1.14141 9.826699,-1.29704 17.064453,3.22656 8.762246,5.4764 16.414293,5.63203 22.935547,4.27344 C 75.33766,366.44023 80.833333,364.13281 88,364.13281 v -8 c -8.833333,0 -15.33766,2.69258 -20.816406,3.83399 -5.478746,1.1414 -9.826699,1.29898 -17.064453,-3.22461 -6.571685,-4.10731 -12.517934,-5.22372 -17.832032,-4.95117 z"
         style="fill:#0000ff;fill-opacity:1;fill-rule:evenodd;stroke:none;stroke-width:1px;stroke-linecap:butt;stroke-linejoin:miter;stroke-opacity:1"
         id="path4707-7" />
    </g>
  </g>
</svg>
